<svg width="54" height="50" viewBox="0 0 54 50" fill="none" xmlns="http://www.w3.org/2000/svg">
<path d="M42.0931 49.5006C41.7247 49.502 41.3653 49.3872 41.066 49.1724L26.9993 38.9743L12.9326 49.1724C12.6321 49.3904 12.27 49.5072 11.8988 49.5058C11.5275 49.5045 11.1663 49.3851 10.8674 49.1649C10.5684 48.9448 10.3473 48.6353 10.2358 48.2811C10.1244 47.927 10.1284 47.5466 10.2474 47.1949L15.7337 30.9451L1.51493 21.1943C1.20694 20.9833 0.974494 20.6794 0.851542 20.3269C0.72859 19.9744 0.721582 19.5919 0.831541 19.2351C0.9415 18.8784 1.16266 18.5661 1.46272 18.344C1.76277 18.1219 2.12599 18.0015 2.49931 18.0006H20.0409L25.3346 1.70916C25.4487 1.35744 25.6712 1.05087 25.9702 0.833444C26.2693 0.616016 26.6296 0.498901 26.9993 0.498901C27.3691 0.498901 27.7293 0.616016 28.0284 0.833444C28.3274 1.05087 28.55 1.35744 28.664 1.70916L33.9578 18.006H51.4993C51.8731 18.0059 52.2371 18.1254 52.5381 18.347C52.839 18.5687 53.0611 18.8809 53.1717 19.238C53.2824 19.595 53.2758 19.9781 53.153 20.3311C53.0302 20.6841 52.7975 20.9885 52.4892 21.1998L38.2649 30.9451L43.7479 47.1906C43.8367 47.4536 43.8617 47.734 43.8208 48.0085C43.7799 48.2831 43.6742 48.544 43.5126 48.7697C43.3509 48.9954 43.1378 49.1794 42.891 49.3064C42.6442 49.4335 42.3707 49.5001 42.0931 49.5006Z" fill="#FFC23D"/>
</svg>
