<svg width="19" height="17" viewBox="0 0 19 17" fill="none" xmlns="http://www.w3.org/2000/svg">
<path d="M14.6215 16.8126C14.4965 16.8131 14.3746 16.7741 14.273 16.7013L9.50039 13.2412L4.72776 16.7013C4.62579 16.7752 4.50295 16.8148 4.37699 16.8144C4.25103 16.8139 4.12848 16.7734 4.02706 16.6987C3.92563 16.624 3.85059 16.519 3.81278 16.3988C3.77497 16.2787 3.77635 16.1496 3.81672 16.0303L5.67813 10.517L0.853909 7.20867C0.749413 7.13709 0.670545 7.03397 0.62883 6.91438C0.587114 6.79478 0.584736 6.66498 0.622043 6.54394C0.659351 6.4229 0.734389 6.31696 0.836193 6.2416C0.937997 6.16624 1.06123 6.12541 1.18789 6.12508H7.13949L8.93559 0.597637C8.97428 0.478301 9.04978 0.374288 9.15125 0.300517C9.25271 0.226747 9.37494 0.187012 9.50039 0.187012C9.62584 0.187012 9.74807 0.226747 9.84954 0.300517C9.95101 0.374288 10.0265 0.478301 10.0652 0.597637L11.8613 6.12693H17.8129C17.9397 6.12687 18.0632 6.16742 18.1653 6.24263C18.2674 6.31784 18.3428 6.42378 18.3803 6.54491C18.4179 6.66605 18.4156 6.79602 18.374 6.91579C18.3323 7.03557 18.2534 7.13886 18.1487 7.21053L13.3227 10.517L15.183 16.0288C15.2131 16.1181 15.2216 16.2132 15.2077 16.3064C15.1938 16.3995 15.158 16.488 15.1031 16.5646C15.0482 16.6412 14.976 16.7036 14.8922 16.7467C14.8085 16.7898 14.7157 16.8124 14.6215 16.8126Z" fill="#FFC23D"/>
</svg>
